<mxfile host="Electron" agent="Mozilla/5.0 (Windows NT 10.0; Win64; x64) AppleWebKit/537.36 (KHTML, like Gecko) draw.io/28.0.6 Chrome/138.0.7204.100 Electron/37.2.3 Safari/537.36" version="28.0.6">
  <diagram name="第 1 页" id="8Gy-hFhA_sYA7JsWY0R3">
    <mxGraphModel dx="1426" dy="841" grid="1" gridSize="10" guides="1" tooltips="1" connect="1" arrows="1" fold="1" page="1" pageScale="1" pageWidth="827" pageHeight="1169" math="0" shadow="0">
      <root>
        <mxCell id="0" />
        <mxCell id="1" parent="0" />
        <mxCell id="O5IykoiGszYiBBqlG0yX-21" value="" style="rounded=0;whiteSpace=wrap;html=1;" vertex="1" parent="1">
          <mxGeometry x="10" y="240" width="200" height="260" as="geometry" />
        </mxCell>
        <mxCell id="O5IykoiGszYiBBqlG0yX-15" style="edgeStyle=orthogonalEdgeStyle;rounded=0;orthogonalLoop=1;jettySize=auto;html=1;exitX=1;exitY=0.5;exitDx=0;exitDy=0;entryX=0;entryY=0.5;entryDx=0;entryDy=0;" edge="1" parent="1" source="O5IykoiGszYiBBqlG0yX-1" target="O5IykoiGszYiBBqlG0yX-2">
          <mxGeometry relative="1" as="geometry" />
        </mxCell>
        <mxCell id="O5IykoiGszYiBBqlG0yX-1" value="start training" style="ellipse;whiteSpace=wrap;html=1;" vertex="1" parent="1">
          <mxGeometry x="40" y="70" width="120" height="60" as="geometry" />
        </mxCell>
        <mxCell id="O5IykoiGszYiBBqlG0yX-16" style="edgeStyle=orthogonalEdgeStyle;rounded=0;orthogonalLoop=1;jettySize=auto;html=1;exitX=1;exitY=0.5;exitDx=0;exitDy=0;entryX=0;entryY=0.5;entryDx=0;entryDy=0;" edge="1" parent="1" source="O5IykoiGszYiBBqlG0yX-2" target="O5IykoiGszYiBBqlG0yX-3">
          <mxGeometry relative="1" as="geometry" />
        </mxCell>
        <mxCell id="O5IykoiGszYiBBqlG0yX-2" value="For each epoch" style="rounded=1;whiteSpace=wrap;html=1;" vertex="1" parent="1">
          <mxGeometry x="200" y="80" width="120" height="40" as="geometry" />
        </mxCell>
        <mxCell id="O5IykoiGszYiBBqlG0yX-17" style="edgeStyle=orthogonalEdgeStyle;rounded=0;orthogonalLoop=1;jettySize=auto;html=1;exitX=0.5;exitY=1;exitDx=0;exitDy=0;" edge="1" parent="1" source="O5IykoiGszYiBBqlG0yX-3" target="O5IykoiGszYiBBqlG0yX-9">
          <mxGeometry relative="1" as="geometry" />
        </mxCell>
        <mxCell id="O5IykoiGszYiBBqlG0yX-32" style="edgeStyle=orthogonalEdgeStyle;rounded=0;orthogonalLoop=1;jettySize=auto;html=1;exitX=1;exitY=0.5;exitDx=0;exitDy=0;entryX=0.5;entryY=0;entryDx=0;entryDy=0;" edge="1" parent="1" source="O5IykoiGszYiBBqlG0yX-3" target="O5IykoiGszYiBBqlG0yX-34">
          <mxGeometry relative="1" as="geometry">
            <mxPoint x="650" y="380" as="targetPoint" />
          </mxGeometry>
        </mxCell>
        <mxCell id="O5IykoiGszYiBBqlG0yX-3" value="For each Batch" style="rhombus;whiteSpace=wrap;html=1;" vertex="1" parent="1">
          <mxGeometry x="350" y="75" width="210" height="50" as="geometry" />
        </mxCell>
        <mxCell id="O5IykoiGszYiBBqlG0yX-19" style="edgeStyle=orthogonalEdgeStyle;rounded=0;orthogonalLoop=1;jettySize=auto;html=1;exitX=0.5;exitY=1;exitDx=0;exitDy=0;entryX=0.5;entryY=0;entryDx=0;entryDy=0;" edge="1" parent="1" source="O5IykoiGszYiBBqlG0yX-4" target="O5IykoiGszYiBBqlG0yX-8">
          <mxGeometry relative="1" as="geometry" />
        </mxCell>
        <mxCell id="O5IykoiGszYiBBqlG0yX-4" value="data: weights,&lt;div&gt;&amp;nbsp;values, capacity&lt;/div&gt;" style="rounded=1;whiteSpace=wrap;html=1;" vertex="1" parent="1">
          <mxGeometry x="50" y="270" width="120" height="50" as="geometry" />
        </mxCell>
        <mxCell id="O5IykoiGszYiBBqlG0yX-24" style="edgeStyle=orthogonalEdgeStyle;rounded=0;orthogonalLoop=1;jettySize=auto;html=1;exitX=0.5;exitY=0;exitDx=0;exitDy=0;entryX=0.5;entryY=1;entryDx=0;entryDy=0;" edge="1" parent="1" source="O5IykoiGszYiBBqlG0yX-6" target="O5IykoiGszYiBBqlG0yX-11">
          <mxGeometry relative="1" as="geometry" />
        </mxCell>
        <mxCell id="O5IykoiGszYiBBqlG0yX-6" value="calculate return R" style="rounded=1;whiteSpace=wrap;html=1;" vertex="1" parent="1">
          <mxGeometry x="279" y="540" width="130" height="40" as="geometry" />
        </mxCell>
        <mxCell id="O5IykoiGszYiBBqlG0yX-23" style="edgeStyle=orthogonalEdgeStyle;rounded=0;orthogonalLoop=1;jettySize=auto;html=1;exitX=0.5;exitY=1;exitDx=0;exitDy=0;entryX=0;entryY=0.5;entryDx=0;entryDy=0;" edge="1" parent="1" source="O5IykoiGszYiBBqlG0yX-7" target="O5IykoiGszYiBBqlG0yX-6">
          <mxGeometry relative="1" as="geometry" />
        </mxCell>
        <mxCell id="O5IykoiGszYiBBqlG0yX-7" value="current step action" style="rounded=1;whiteSpace=wrap;html=1;" vertex="1" parent="1">
          <mxGeometry x="50" y="420" width="120" height="40" as="geometry" />
        </mxCell>
        <mxCell id="O5IykoiGszYiBBqlG0yX-20" style="edgeStyle=orthogonalEdgeStyle;rounded=0;orthogonalLoop=1;jettySize=auto;html=1;exitX=0.5;exitY=1;exitDx=0;exitDy=0;entryX=0.5;entryY=0;entryDx=0;entryDy=0;" edge="1" parent="1" source="O5IykoiGszYiBBqlG0yX-8" target="O5IykoiGszYiBBqlG0yX-7">
          <mxGeometry relative="1" as="geometry" />
        </mxCell>
        <mxCell id="O5IykoiGszYiBBqlG0yX-8" value="current step probablity" style="rounded=1;whiteSpace=wrap;html=1;" vertex="1" parent="1">
          <mxGeometry x="50" y="350" width="120" height="40" as="geometry" />
        </mxCell>
        <mxCell id="O5IykoiGszYiBBqlG0yX-18" style="edgeStyle=orthogonalEdgeStyle;rounded=0;orthogonalLoop=1;jettySize=auto;html=1;exitX=0;exitY=0.5;exitDx=0;exitDy=0;entryX=0.5;entryY=0;entryDx=0;entryDy=0;" edge="1" parent="1" source="O5IykoiGszYiBBqlG0yX-9" target="O5IykoiGszYiBBqlG0yX-4">
          <mxGeometry relative="1" as="geometry" />
        </mxCell>
        <mxCell id="O5IykoiGszYiBBqlG0yX-31" value="all instances processed" style="edgeStyle=orthogonalEdgeStyle;rounded=0;orthogonalLoop=1;jettySize=auto;html=1;exitX=1;exitY=0.5;exitDx=0;exitDy=0;entryX=1;entryY=0.5;entryDx=0;entryDy=0;" edge="1" parent="1" source="O5IykoiGszYiBBqlG0yX-9" target="O5IykoiGszYiBBqlG0yX-3">
          <mxGeometry relative="1" as="geometry" />
        </mxCell>
        <mxCell id="O5IykoiGszYiBBqlG0yX-9" value="For each instance" style="rhombus;whiteSpace=wrap;html=1;" vertex="1" parent="1">
          <mxGeometry x="365" y="160" width="180" height="50" as="geometry" />
        </mxCell>
        <mxCell id="O5IykoiGszYiBBqlG0yX-25" style="edgeStyle=orthogonalEdgeStyle;rounded=0;orthogonalLoop=1;jettySize=auto;html=1;exitX=0.5;exitY=0;exitDx=0;exitDy=0;entryX=0.5;entryY=1;entryDx=0;entryDy=0;" edge="1" parent="1" source="O5IykoiGszYiBBqlG0yX-11" target="O5IykoiGszYiBBqlG0yX-12">
          <mxGeometry relative="1" as="geometry" />
        </mxCell>
        <mxCell id="O5IykoiGszYiBBqlG0yX-11" value="update Baseline b" style="rounded=1;whiteSpace=wrap;html=1;" vertex="1" parent="1">
          <mxGeometry x="279" y="460" width="130" height="40" as="geometry" />
        </mxCell>
        <mxCell id="O5IykoiGszYiBBqlG0yX-26" style="edgeStyle=orthogonalEdgeStyle;rounded=0;orthogonalLoop=1;jettySize=auto;html=1;exitX=0.5;exitY=0;exitDx=0;exitDy=0;entryX=0.5;entryY=1;entryDx=0;entryDy=0;" edge="1" parent="1" source="O5IykoiGszYiBBqlG0yX-12" target="O5IykoiGszYiBBqlG0yX-13">
          <mxGeometry relative="1" as="geometry" />
        </mxCell>
        <mxCell id="O5IykoiGszYiBBqlG0yX-12" value="Advantage A = R-b" style="rounded=1;whiteSpace=wrap;html=1;" vertex="1" parent="1">
          <mxGeometry x="279" y="380" width="130" height="40" as="geometry" />
        </mxCell>
        <mxCell id="O5IykoiGszYiBBqlG0yX-29" style="edgeStyle=orthogonalEdgeStyle;rounded=0;orthogonalLoop=1;jettySize=auto;html=1;exitX=0.5;exitY=0;exitDx=0;exitDy=0;entryX=0.5;entryY=1;entryDx=0;entryDy=0;" edge="1" parent="1" source="O5IykoiGszYiBBqlG0yX-13" target="O5IykoiGszYiBBqlG0yX-27">
          <mxGeometry relative="1" as="geometry" />
        </mxCell>
        <mxCell id="O5IykoiGszYiBBqlG0yX-13" value="loss" style="rounded=1;whiteSpace=wrap;html=1;" vertex="1" parent="1">
          <mxGeometry x="274" y="310" width="140" height="40" as="geometry" />
        </mxCell>
        <mxCell id="O5IykoiGszYiBBqlG0yX-22" value="instance process" style="text;html=1;align=center;verticalAlign=middle;whiteSpace=wrap;rounded=0;" vertex="1" parent="1">
          <mxGeometry x="30" y="210" width="160" height="30" as="geometry" />
        </mxCell>
        <mxCell id="O5IykoiGszYiBBqlG0yX-30" style="edgeStyle=orthogonalEdgeStyle;rounded=0;orthogonalLoop=1;jettySize=auto;html=1;exitX=1;exitY=0.5;exitDx=0;exitDy=0;entryX=0.5;entryY=1;entryDx=0;entryDy=0;" edge="1" parent="1" source="O5IykoiGszYiBBqlG0yX-27" target="O5IykoiGszYiBBqlG0yX-9">
          <mxGeometry relative="1" as="geometry" />
        </mxCell>
        <mxCell id="O5IykoiGszYiBBqlG0yX-27" value="update model weights" style="rounded=1;whiteSpace=wrap;html=1;" vertex="1" parent="1">
          <mxGeometry x="277" y="240" width="134" height="40" as="geometry" />
        </mxCell>
        <mxCell id="O5IykoiGszYiBBqlG0yX-33" value="all batches processed" style="text;html=1;align=center;verticalAlign=middle;resizable=0;points=[];autosize=1;strokeColor=none;fillColor=none;" vertex="1" parent="1">
          <mxGeometry x="510" y="260" width="140" height="30" as="geometry" />
        </mxCell>
        <mxCell id="O5IykoiGszYiBBqlG0yX-36" style="edgeStyle=orthogonalEdgeStyle;rounded=0;orthogonalLoop=1;jettySize=auto;html=1;exitX=0.5;exitY=1;exitDx=0;exitDy=0;entryX=0.5;entryY=0;entryDx=0;entryDy=0;" edge="1" parent="1" source="O5IykoiGszYiBBqlG0yX-34" target="O5IykoiGszYiBBqlG0yX-35">
          <mxGeometry relative="1" as="geometry" />
        </mxCell>
        <mxCell id="O5IykoiGszYiBBqlG0yX-34" value="average epoch reward" style="rounded=1;whiteSpace=wrap;html=1;" vertex="1" parent="1">
          <mxGeometry x="560" y="380" width="170" height="60" as="geometry" />
        </mxCell>
        <mxCell id="O5IykoiGszYiBBqlG0yX-35" value="end training" style="ellipse;whiteSpace=wrap;html=1;" vertex="1" parent="1">
          <mxGeometry x="585" y="520" width="120" height="60" as="geometry" />
        </mxCell>
      </root>
    </mxGraphModel>
  </diagram>
</mxfile>
